<svg width="98" height="99" viewBox="0 0 98 99" fill="none" xmlns="http://www.w3.org/2000/svg">
<path fill-rule="evenodd" clip-rule="evenodd" d="M84.4583 29.0625C84.4583 29.8747 84.1357 30.6537 83.5614 31.228C82.987 31.8023 82.2081 32.125 81.3958 32.125H16.0625C15.2503 32.125 14.4713 31.8023 13.897 31.228C13.3227 30.6537 13 29.8747 13 29.0625C13 28.2503 13.3227 27.4713 13.897 26.897C14.4713 26.3227 15.2503 26 16.0625 26H81.3958C82.2081 26 82.987 26.3227 83.5614 26.897C84.1357 27.4713 84.4583 28.2503 84.4583 29.0625ZM84.4583 49.4792C84.4583 50.2914 84.1357 51.0703 83.5614 51.6447C82.987 52.219 82.2081 52.5417 81.3958 52.5417H16.0625C15.2503 52.5417 14.4713 52.219 13.897 51.6447C13.3227 51.0703 13 50.2914 13 49.4792C13 48.6669 13.3227 47.888 13.897 47.3137C14.4713 46.7393 15.2503 46.4167 16.0625 46.4167H81.3958C82.2081 46.4167 82.987 46.7393 83.5614 47.3137C84.1357 47.888 84.4583 48.6669 84.4583 49.4792ZM84.4583 69.8958C84.4583 70.7081 84.1357 71.487 83.5614 72.0613C82.987 72.6357 82.2081 72.9583 81.3958 72.9583H16.0625C15.2503 72.9583 14.4713 72.6357 13.897 72.0613C13.3227 71.487 13 70.7081 13 69.8958C13 69.0836 13.3227 68.3046 13.897 67.7303C14.4713 67.156 15.2503 66.8333 16.0625 66.8333H81.3958C82.2081 66.8333 82.987 67.156 83.5614 67.7303C84.1357 68.3046 84.4583 69.0836 84.4583 69.8958Z" fill="black"/>
</svg>
